<?xml version="1.0" encoding="UTF-8"?>
<svg version="1.1" xmlns="http://www.w3.org/2000/svg" width="851" height="851">
<path d="M0 0 C49.72196995 -0.8402321 94.57251269 18.04780358 130.3671875 52.12109375 C131.12386719 52.81332031 131.88054688 53.50554687 132.66015625 54.21875 C159.62127541 79.70658396 175.75696572 116.96146115 181.3671875 153.12109375 C181.521875 154.1124231 181.521875 154.1124231 181.6796875 155.1237793 C184.28590561 174.71928171 183.75478157 196.87370419 179.3671875 216.12109375 C179.17382812 216.98524902 178.98046875 217.8494043 178.78125 218.73974609 C167.98637834 265.42590016 139.07077687 305.84783002 98.47216797 331.30957031 C58.64423247 355.41888222 9.35061915 364.57326105 -36.24121094 353.48681641 C-51.67868382 349.58184878 -66.02634375 344.12177932 -80.1953125 336.87109375 C-81.02160156 336.45384033 -81.84789062 336.03658691 -82.69921875 335.60668945 C-88.10193591 332.7676249 -93.03830326 329.49434193 -97.97241211 325.92285156 C-98.61563164 325.46020905 -99.25885117 324.99756653 -99.92156219 324.52090454 C-101.49352917 323.38978557 -103.0633889 322.25573902 -104.6328125 321.12109375 C-104.63501234 322.43498156 -104.63501234 322.43498156 -104.63725662 323.77541256 C-104.67441471 345.15353136 -104.73354811 366.53149276 -104.81671524 387.90948391 C-104.85641325 398.24800797 -104.88885247 408.58645692 -104.90380859 418.92504883 C-104.9168732 427.9430817 -104.94395964 436.96094869 -104.98742557 445.97888809 C-105.00993281 450.74757009 -105.02572968 455.51604831 -105.02469635 460.28478813 C-105.02394333 464.78698487 -105.04214787 469.28873299 -105.07398033 473.79081345 C-105.08239543 475.43007289 -105.08428746 477.06938317 -105.07861519 478.7086544 C-104.97330245 513.86757524 -121.69165001 544.28632643 -145.6328125 569.12109375 C-146.22449219 569.76433594 -146.81617188 570.40757812 -147.42578125 571.0703125 C-156.89377844 581.09937619 -169.06793424 588.74599533 -180.6328125 596.12109375 C-181.50147949 596.67531006 -181.50147949 596.67531006 -182.38769531 597.24072266 C-226.49847221 625.10081913 -271.62429715 637.8584717 -323.32104492 626.20898438 C-351.31375991 619.55048851 -377.02771636 606.12831684 -398.6328125 587.12109375 C-399.59316406 586.29351563 -400.55351562 585.4659375 -401.54296875 584.61328125 C-435.64462727 554.71010977 -456.115002 510.46105207 -459.4921875 465.49267578 C-462.43858043 415.80298676 -446.10568581 369.01195603 -413.12451172 331.77832031 C-386.39171076 302.07909726 -350.75216707 283.37381302 -311.6328125 276.12109375 C-309.81716797 275.78078125 -309.81716797 275.78078125 -307.96484375 275.43359375 C-286.01563082 272.04593388 -260.85547403 272.04687324 -239.6328125 279.12109375 C-239.6328125 305.19109375 -239.6328125 331.26109375 -239.6328125 358.12109375 C-243.75387527 357.2968812 -247.01065754 356.26008799 -250.8828125 354.74609375 C-276.23902858 345.65264827 -304.95808904 346.89115603 -329.54736328 357.98486328 C-338.70686087 362.35060512 -346.74710861 367.7329716 -354.6328125 374.12109375 C-355.33664062 374.65992188 -356.04046875 375.19875 -356.765625 375.75390625 C-376.44591138 391.60968354 -387.83322978 417.70582426 -391.2578125 442.24609375 C-394.21017845 473.95669104 -384.3138333 501.20704771 -364.51171875 525.75 C-350.40352266 542.29153633 -330.55063041 552.92002936 -309.6328125 558.12109375 C-308.70339844 558.36472656 -307.77398437 558.60835937 -306.81640625 558.859375 C-279.86371624 564.62654448 -251.16734786 558.3654692 -227.90625 544.2421875 C-222.77359312 540.91637284 -218.16155416 537.22506166 -213.6328125 533.12109375 C-212.66730469 532.2496875 -211.70179688 531.37828125 -210.70703125 530.48046875 C-196.59891661 517.30263519 -177.30510165 493.20798178 -175.38145548 473.55281228 C-175.38080338 472.63208973 -175.38015127 471.71136718 -175.37947941 470.76274395 C-175.37105631 469.16068349 -175.37105631 469.16068349 -175.36246306 467.52625817 C-175.36644415 466.35878118 -175.37042524 465.19130418 -175.37452698 463.9884491 C-175.36901342 462.12084009 -175.36901342 462.12084009 -175.36338848 460.21550161 C-175.35513139 456.76137717 -175.35578076 453.3074599 -175.36011541 449.85334194 C-175.362592 446.12627076 -175.35352208 442.39922626 -175.34573364 438.67216492 C-175.33368383 432.2099938 -175.32858037 425.74784734 -175.32785225 419.28566551 C-175.32652483 409.91630192 -175.31139498 400.54699792 -175.29235708 391.17765538 C-175.2614986 375.94193063 -175.23734688 360.70620437 -175.21948242 345.47045898 C-175.21840974 344.55847259 -175.21733706 343.6464862 -175.21623188 342.70686386 C-175.20443833 332.55614379 -175.19423143 322.40542311 -175.18579102 312.25469971 C-175.18271769 308.58605955 -175.17962877 304.91741941 -175.17651367 301.2487793 C-175.17574833 300.34366795 -175.17498299 299.43855661 -175.17419446 298.50601765 C-175.16105856 283.34999235 -175.13633792 268.19400976 -175.10277027 253.03801614 C-175.08259844 243.70896274 -175.07217445 234.38000108 -175.07475948 225.05092571 C-175.075804 218.63633984 -175.066008 212.22182587 -175.04812045 205.80726513 C-175.03819218 202.12024666 -175.03281831 198.43338746 -175.04088783 194.74636078 C-175.08228942 173.8118946 -174.63563521 152.61383065 -168.9453125 132.30859375 C-168.69112549 131.37321777 -168.43693848 130.4378418 -168.17504883 129.47412109 C-165.48911014 119.98932474 -161.8755351 111.00837843 -157.6328125 102.12109375 C-157.28879395 101.39728516 -156.94477539 100.67347656 -156.59033203 99.92773438 C-149.1018754 84.44111731 -139.44310957 70.62070777 -127.6328125 58.12109375 C-126.48217223 56.77100917 -125.3361429 55.41697786 -124.1953125 54.05859375 C-95.84903555 21.77354027 -51.60633266 4.20000176 -9.6953125 0.37109375 C-6.464143 0.19814604 -3.23401204 0.1078004 0 0 Z M-79.23046875 110.52490234 C-91.31407981 124.27884544 -99.72140884 141.24965272 -103.6328125 159.12109375 C-103.85582031 160.11496094 -104.07882812 161.10882813 -104.30859375 162.1328125 C-109.7095799 190.82784774 -102.84925281 220.99556072 -86.6328125 245.12109375 C-83.25124841 249.71420159 -79.50028331 253.93519346 -75.6328125 258.12109375 C-74.97796875 258.85714844 -74.323125 259.59320313 -73.6484375 260.3515625 C-55.39915795 279.88765022 -27.89914739 291.23062047 -1.484375 292.40625 C29.65035501 293.20545466 57.92774201 282.6882222 80.67480469 261.26245117 C100.02785991 242.4527582 112.8083093 216.21520709 113.66796875 189.04296875 C113.94729581 159.69719605 106.81174512 133.68784659 87.3671875 111.12109375 C86.81546875 110.43660156 86.26375 109.75210938 85.6953125 109.046875 C68.82713486 88.6042502 42.24932285 76.39128601 16.3671875 73.12109375 C12.278674 72.84433888 8.21420726 72.78614433 4.1171875 72.80859375 C2.48148804 72.81705322 2.48148804 72.81705322 0.81274414 72.82568359 C-30.25413593 73.28981419 -58.44786635 87.74992986 -79.23046875 110.52490234 Z " fill="#2B8A9D" transform="translate(563.6328125,109.87890625)"/>
<path d="M0 0 C0 26.07 0 52.14 0 79 C-4.12106277 78.17578745 -7.37784504 77.13899424 -11.25 75.625 C-36.60621608 66.53155452 -65.32527654 67.77006228 -89.91455078 78.86376953 C-99.07404837 83.22951137 -107.11429611 88.61187785 -115 95 C-115.70382813 95.53882813 -116.40765625 96.07765625 -117.1328125 96.6328125 C-136.81309888 112.48858979 -148.20041728 138.58473051 -151.625 163.125 C-154.57736595 194.83559729 -144.6810208 222.08595396 -124.87890625 246.62890625 C-110.77071016 263.17044258 -90.91781791 273.79893561 -70 279 C-69.07058594 279.24363281 -68.14117187 279.48726562 -67.18359375 279.73828125 C-40.23090374 285.50545073 -11.53453536 279.24437545 11.7265625 265.12109375 C16.85921938 261.79527909 21.47125834 258.10396791 26 254 C26.96550781 253.12859375 27.93101562 252.2571875 28.92578125 251.359375 C43.21806978 238.00951187 52.25873851 221.55161318 60.86181641 204.18212891 C62 202 62 202 64 199 C64.66 199 65.32 199 66 199 C65.49123855 209.34842447 64.97532839 219.68285433 64 230 C63.9175 230.90363281 63.835 231.80726563 63.75 232.73828125 C63.32700496 237.19955705 62.76815437 241.58311239 62 246 C61.85158369 247.33304829 61.70592433 248.66640538 61.5625 250 C61.26069928 252.53416796 60.83319235 254.48999747 60 256.9375 C59.13265377 259.59374782 58.76010085 261.68786249 58.5 264.4375 C58.11416263 268.47863873 57.22236632 272.11718934 56 276 C55.83371094 276.64453125 55.66742188 277.2890625 55.49609375 277.953125 C55.05754026 279.65208813 54.53477545 281.32882673 54 283 C53.34 283.33 52.68 283.66 52 284 C52.33 284.99 52.66 285.98 53 287 C52.0625 290.1875 52.0625 290.1875 51 293 C50.34 293 49.68 293 49 293 C49.33 293.99 49.66 294.98 50 296 C49.34 296 48.68 296 48 296 C48.0309375 297.175625 48.0309375 297.175625 48.0625 298.375 C48 301 48 301 47 303 C46.34 303 45.68 303 45 303 C44.9175 303.66 44.835 304.32 44.75 305 C43.76146107 308.9541557 42.14741483 312.53172247 40 316 C39.34 316.33 38.68 316.66 38 317 C38 317.99 38 318.98 38 320 C37.34 320 36.68 320 36 320 C36 320.99 36 321.98 36 323 C32.66666667 326.33333333 29.33333333 329.66666667 26 333 C26.33 333.66 26.66 334.32 27 335 C7.14266209 345.03255637 -13.69905415 351.00051783 -36 352 C-37.31871094 352.061875 -37.31871094 352.061875 -38.6640625 352.125 C-82.64260802 353.11606581 -126.06267368 336.9768259 -159 308 C-160.44052734 306.75863281 -160.44052734 306.75863281 -161.91015625 305.4921875 C-196.01181477 275.58901602 -216.4821895 231.33995832 -219.859375 186.37158203 C-222.80576793 136.68189301 -206.47287331 89.89086228 -173.49169922 52.65722656 C-146.75889826 22.95800351 -111.11935457 4.25271927 -72 -3 C-70.78957031 -3.226875 -69.57914063 -3.45375 -68.33203125 -3.6875 C-46.38281832 -7.07515987 -21.22266153 -7.07422051 0 0 Z " fill="#3C9EA0" transform="translate(324,389)"/>
<path d="M0 0 C11.93649955 10.05012047 19.85120889 22.46838706 22 38 C22.96936759 55.48590002 19.5094556 70.99458142 8.1015625 84.83984375 C-3.02685763 96.27853581 -16.64237506 102.840323 -32.48950195 103.28344727 C-48.44031468 103.47771057 -62.27231787 98.82236463 -74.6171875 88.3828125 C-85.76385506 77.23614494 -92.19020455 62.70063461 -92.25 46.9375 C-92.22632083 31.11474117 -87.28014893 17.6901964 -76.2109375 6.1796875 C-75.48132813 5.46039063 -74.75171875 4.74109375 -74 4 C-73.43539062 3.42507812 -72.87078125 2.85015625 -72.2890625 2.2578125 C-52.85696853 -16.03679305 -20.72669818 -15.29624639 0 0 Z " fill="#2786A0" transform="translate(603,248)"/>
<path d="M0 0 C0.83144531 0.62261719 1.66289062 1.24523437 2.51953125 1.88671875 C13.74633579 11.45160262 19.5518889 26.02455501 20.8125 40.375 C21.65015502 58.10833504 15.47696932 73.01937798 3.625 86.0625 C-8.27494741 97.63741091 -23.16495375 101.40470378 -39.29150391 101.36791992 C-46.8119721 101.24180175 -53.18005302 100.343974 -60 97 C-60.77859375 96.649375 -61.5571875 96.29875 -62.359375 95.9375 C-77.48977046 88.42447605 -86.46811845 75.00948611 -92.25 59.6875 C-95.69565622 42.74635692 -93.44947087 27.12874899 -84.3125 12.375 C-74.21892443 -1.81265342 -61.02724161 -9.22370261 -44.1875 -12.8125 C-27.84058311 -14.12971025 -12.80912527 -10.41032544 0 0 Z " fill="#2786A0" transform="translate(313,517)"/>
</svg>
