<svg fill="none" height="40" viewBox="0 0 40 40" width="40" xmlns="http://www.w3.org/2000/svg" xmlns:xlink="http://www.w3.org/1999/xlink"><clipPath id="a"><path d="m0 0h40v40h-40z"/></clipPath><g clip-path="url(#a)"><path d="m20 40c11.0457 0 20-8.9543 20-20s-8.9543-20-20-20-20 8.9543-20 20 8.9543 20 20 20z" fill="#8247e5"/><path d="m26.6199 15.7209c-.4797-.279-1.1033-.279-1.631 0l-3.7417 2.1396-2.5424 1.3953-3.7417 2.1396c-.4797.279-1.1033.279-1.631 0l-2.9742-1.6745c-.47966-.279-.81544-.7907-.81544-1.3488v-3.3023c0-.5582.28781-1.0698.81544-1.3489l2.9262-1.6279c.4797-.2791 1.1034-.2791 1.6311 0l2.9261 1.6279c.4798.2791.8155.7907.8155 1.3489v2.1395l2.5425-1.4419v-2.1395c0-.5581-.2879-1.0698-.8155-1.3488l-5.4207-3.0698c-.4797-.27907-1.1033-.27907-1.631 0l-5.51659 3.0698c-.5277.279-.81551.7907-.81551 1.3488v6.186c0 .5582.28781 1.0698.81551 1.3489l5.51659 3.0697c.4797.2791 1.1033.2791 1.631 0l3.7417-2.093 2.5424-1.4418 3.7417-2.093c.4797-.2791 1.1034-.2791 1.631 0l2.9262 1.6278c.4797.2791.8155.7907.8155 1.3489v3.3023c0 .5582-.2878 1.0698-.8155 1.3488l-2.9262 1.6745c-.4797.2791-1.1033.2791-1.631 0l-2.9262-1.6279c-.4797-.2791-.8155-.7907-.8155-1.3489v-2.1395l-2.5424 1.4418v2.1396c0 .5581.2878 1.0698.8155 1.3488l5.5166 3.0698c.4797.2791 1.1033.2791 1.631 0l5.5166-3.0698c.4797-.279.8155-.7907.8155-1.3488v-6.186c0-.5582-.2878-1.0698-.8155-1.3489z" fill="#fff"/></g></svg>