<?xml version="1.0" encoding="UTF-8"?>
<svg version="1.1" xmlns="http://www.w3.org/2000/svg" width="250" height="250">
<path d="M0 0 C1.26743546 -0.01142029 2.53487091 -0.02284058 3.8407135 -0.03460693 C5.24810752 -0.03709761 6.65550198 -0.03934781 8.06289673 -0.04138184 C9.54289749 -0.05063896 11.02289348 -0.06068839 12.50288391 -0.07147217 C16.52563914 -0.09771514 20.54832762 -0.11060873 24.57115507 -0.11949348 C27.08403262 -0.12535515 29.59689192 -0.13356474 32.10976028 -0.14250183 C39.97089884 -0.16984901 47.8319957 -0.18918422 55.69317853 -0.19690561 C64.7700816 -0.20586999 73.84638273 -0.24098029 82.92310274 -0.2989068 C89.93805789 -0.34212274 96.95284356 -0.36231315 103.96793044 -0.36498785 C108.15845538 -0.36708507 112.3484144 -0.37892206 116.53879929 -0.41462708 C120.48052138 -0.44756024 124.42125135 -0.45191563 128.3630619 -0.43434906 C129.80906772 -0.43280672 131.25512655 -0.4415157 132.70099831 -0.46126556 C143.60635116 -0.60148283 143.60635116 -0.60148283 146.90571976 1.58088684 C149.11470758 4.13087736 150.55221323 6.91713464 150.94033813 10.28088379 C151.60033813 10.28088379 152.26033813 10.28088379 152.94033813 10.28088379 C160.94033813 24.5101328 160.94033813 24.5101328 160.94033813 27.28088379 C161.60033813 27.28088379 162.26033813 27.28088379 162.94033813 27.28088379 C170.94033813 41.5101328 170.94033813 41.5101328 170.94033813 44.28088379 C171.60033813 44.28088379 172.26033813 44.28088379 172.94033813 44.28088379 C180.94033813 58.5101328 180.94033813 58.5101328 180.94033813 61.28088379 C181.60033813 61.28088379 182.26033813 61.28088379 182.94033813 61.28088379 C183.73308962 62.69694369 184.52449125 64.11375932 185.31533813 65.53088379 C185.75619751 66.31979004 186.19705688 67.10869629 186.65127563 67.92150879 C187.07666626 68.70010254 187.50205688 69.47869629 187.94033813 70.28088379 C188.3128772 70.95119629 188.68541626 71.62150879 189.06924438 72.31213379 C190.68741353 75.96934119 190.77342764 79.39099665 189.94033813 83.28088379 C186.84581357 88.32550816 182.20765011 92.00553838 177.68252563 95.72619629 C175.79021401 97.41485106 174.20106571 99.2186396 172.56533813 101.15588379 C169.33346723 104.96279479 165.77780451 108.19926043 162.01065063 111.46838379 C159.53805835 113.63306836 157.23153932 115.92603813 154.94033813 118.28088379 C152.53995462 120.74127689 150.2285105 123.05921274 147.50283813 125.15588379 C145.38378414 126.91314808 143.85818967 128.49357882 142.12783813 130.59338379 C139.30555098 133.99031188 136.17885732 136.79989405 132.81924438 139.65588379 C131.25797221 141.00617324 129.77493609 142.44628583 128.31533813 143.90588379 C125.94033813 146.28088379 125.94033813 146.28088379 123.00283813 148.65588379 C120.75107204 150.4893829 118.91100993 152.41506817 117.06533813 154.65588379 C114.9853176 157.17097617 112.83514486 159.31404947 110.33877563 161.41369629 C105.45814777 165.6285301 100.96155739 170.18709279 96.44033813 174.78088379 C80.81651368 190.65549194 80.81651368 190.65549194 75.94033813 192.28088379 C74.73151717 194.28104845 74.73151717 194.28104845 73.94033813 196.28088379 C63.57473641 197.35318742 63.57473641 197.35318742 59.72549438 194.82775879 C58.01833612 193.04962458 56.48083234 191.20328324 54.94033813 189.28088379 C54.13596313 188.68275879 53.33158813 188.08463379 52.50283813 187.46838379 C51.98721313 187.07650879 51.47158813 186.68463379 50.94033813 186.28088379 C50.94033813 185.62088379 50.94033813 184.96088379 50.94033813 184.28088379 C50.36453003 184.03177246 49.78872192 183.78266113 49.19546509 183.52600098 C46.61419971 182.10081386 44.91693703 180.46797867 42.85830688 178.35900879 C41.70685181 177.19111816 41.70685181 177.19111816 40.53213501 175.99963379 C39.73871704 175.18494629 38.94529907 174.37025879 38.12783813 173.53088379 C33.3630249 168.66001123 28.63928724 163.84904797 23.3866272 159.50012207 C21.09368893 157.56714879 19.03418708 155.42580222 16.94033813 153.28088379 C11.35261134 147.57327176 11.35261134 147.57327176 5.37783813 142.28088379 C2.81860497 140.1443294 0.6595467 137.88556742 -1.49716187 135.34338379 C-5.750999 130.34393026 -10.6089095 126.21868798 -15.74716187 122.15588379 C-18.37688925 120.02367239 -20.69599358 117.70364379 -23.05966187 115.28088379 C-24.29716187 114.04338379 -24.29716187 114.04338379 -25.55966187 112.78088379 C-43.05966187 95.28088379 -43.05966187 95.28088379 -45.08309937 93.22229004 C-45.79723999 92.49912598 -46.51138062 91.77596191 -47.24716187 91.03088379 C-47.92134155 90.34510254 -48.59552124 89.65932129 -49.29013062 88.95275879 C-50.96765182 87.20639268 -50.96765182 87.20639268 -53.05966187 86.28088379 C-53.98316913 83.51036198 -54.22295771 81.71399621 -54.24716187 78.84338379 C-54.26134155 78.08154785 -54.27552124 77.31971191 -54.29013062 76.53479004 C-54.03578853 74.04741064 -53.29983383 72.43280273 -52.05966187 70.28088379 C-51.39966187 70.28088379 -50.73966187 70.28088379 -50.05966187 70.28088379 C-49.85341187 69.49713379 -49.64716187 68.71338379 -49.43466187 67.90588379 C-47.58652796 63.03353077 -45.12928627 58.50161734 -42.05966187 54.28088379 C-41.39966187 54.28088379 -40.73966187 54.28088379 -40.05966187 54.28088379 C-39.59559937 52.85775879 -39.59559937 52.85775879 -39.12216187 51.40588379 C-38.05966187 48.28088379 -38.05966187 48.28088379 -37.05966187 46.28088379 C-36.39966187 46.28088379 -35.73966187 46.28088379 -35.05966187 46.28088379 C-34.75028687 45.33213379 -34.44091187 44.38338379 -34.12216187 43.40588379 C-33.05966187 40.28088379 -33.05966187 40.28088379 -32.05966187 38.28088379 C-31.39966187 38.28088379 -30.73966187 38.28088379 -30.05966187 38.28088379 C-29.75028687 37.33213379 -29.44091187 36.38338379 -29.12216187 35.40588379 C-28.05966187 32.28088379 -28.05966187 32.28088379 -27.05966187 30.28088379 C-26.39966187 30.28088379 -25.73966187 30.28088379 -25.05966187 30.28088379 C-24.87403687 29.49713379 -24.68841187 28.71338379 -24.49716187 27.90588379 C-22.85493614 23.76461892 -20.61062401 20.67030569 -18.00106812 17.08557129 C-15.26294331 13.12988998 -12.95972972 8.95951148 -10.63778687 4.74963379 C-7.73253634 0.20478643 -5.06578179 0.02729231 0 0 Z " fill="#019393" transform="translate(57.059661865234375,26.7191162109375)"/>
<path d="M0 0 C34.65 0 69.3 0 105 0 C105 6.6 105 13.2 105 20 C92.13 20 79.26 20 66 20 C66 24.29 66 28.58 66 33 C67.11117187 33.04898438 68.22234375 33.09796875 69.3671875 33.1484375 C77.40085775 33.53719264 85.1769458 34.00485866 93 36 C93.91265625 36.2165625 94.8253125 36.433125 95.765625 36.65625 C102.29620038 38.2978154 109.11603707 40.11603707 114 45 C114.47258908 48.10320261 114.3703622 51.23984834 114.375 54.375 C114.39949219 55.23867187 114.42398438 56.10234375 114.44921875 56.9921875 C114.4784405 63.30408654 114.4784405 63.30408654 112.28125 66.5 C109.87872498 68.07974248 107.90367611 68.90652611 105.125 69.625 C104.238125 69.86476563 103.35125 70.10453125 102.4375 70.3515625 C101.633125 70.56554687 100.82875 70.77953125 100 71 C99.05125 71.33 98.1025 71.66 97.125 72 C95.578125 72.495 95.578125 72.495 94 73 C92.79537109 73.39058594 92.79537109 73.39058594 91.56640625 73.7890625 C82.03030042 76.55802674 75.78154068 76 65 76 C65 87.22 65 98.44 65 110 C56.42 110 47.84 110 39 110 C39 98.78 39 87.56 39 76 C34.05 76 29.1 76 24 76 C11.86414905 75.18015585 0.79036331 72.51531805 -9 65 C-10.69933426 61.60133148 -10.31049701 57.87203751 -10.375 54.125 C-10.41238281 53.30902344 -10.44976562 52.49304688 -10.48828125 51.65234375 C-10.57671458 45.62905168 -10.57671458 45.62905168 -7.76171875 42.55859375 C6.11542874 34.72693626 23.33586976 33.44056678 39 34 C39 29.05 39 24.1 39 19 C26.13 19 13.26 19 0 19 C0 12.73 0 6.46 0 0 Z " fill="#F3FAFA" transform="translate(73,58)"/>
<path d="M0 0 C0 4.62 0 9.24 0 14 C8.58 14 17.16 14 26 14 C26 9.38 26 4.76 26 0 C41.81720451 -0.29230973 58.96929914 1.11158253 73 9 C75.46624059 12.69936088 75.66028988 15.70811579 75 20 C72.04967617 24.96190826 66.23584468 25.60713106 61 27 C60.05125 27.33 59.1025 27.66 58.125 28 C57.09375 28.33 56.0625 28.66 55 29 C53.79537109 29.39058594 53.79537109 29.39058594 52.56640625 29.7890625 C43.03030042 32.55802674 36.78154068 32 26 32 C26 43.22 26 54.44 26 66 C17.42 66 8.84 66 0 66 C0 54.78 0 43.56 0 32 C-4.95 32 -9.9 32 -15 32 C-27.13585095 31.18015585 -38.20963669 28.51531805 -48 21 C-49.1482685 18.703463 -49.11561175 17.41686833 -49.09765625 14.8671875 C-49.09443359 14.06152344 -49.09121094 13.25585938 -49.08789062 12.42578125 C-49.07951172 11.58402344 -49.07113281 10.74226563 -49.0625 9.875 C-49.05798828 9.02550781 -49.05347656 8.17601563 -49.04882812 7.30078125 C-49.03702874 5.20049091 -49.01909306 3.1002367 -49 1 C-48.67 1 -48.34 1 -48 1 C-47.67 3.64 -47.34 6.28 -47 9 C-46.39414063 8.66226563 -45.78828125 8.32453125 -45.1640625 7.9765625 C-39.1166433 4.75747474 -33.7573492 2.96266524 -27 2 C-25.83082031 1.81566406 -24.66164063 1.63132812 -23.45703125 1.44140625 C-15.55326182 0.27316306 -7.98573993 -0.19717876 0 0 Z " fill="#F2F9F9" transform="translate(112,102)"/>
<path d="M0 0 C0 4.62 0 9.24 0 14 C8.58 14 17.16 14 26 14 C26 9.38 26 4.76 26 0 C41.65346857 -0.28928381 59.19629858 0.94434446 73 9 C73.495 10.485 73.495 10.485 74 12 C63.75596208 18.09821552 52.53446894 19.97285859 40.7578125 20.7890625 C38.9746231 20.81943639 38.9746231 20.81943639 38 22 C36.37325222 22.09340434 34.74245949 22.11745171 33.11303711 22.11352539 C32.07203354 22.11344986 31.03102997 22.11337433 29.95848083 22.11329651 C28.8262056 22.10813522 27.69393036 22.10297394 26.52734375 22.09765625 C24.79817467 22.09553383 24.79817467 22.09553383 23.03407288 22.09336853 C19.33518936 22.08775005 15.63636536 22.07519442 11.9375 22.0625 C9.43684983 22.05748738 6.93619871 22.05292406 4.43554688 22.04882812 C-1.70965588 22.03777462 -7.85482369 22.02101852 -14 22 C-14 21.34 -14 20.68 -14 20 C-15.175625 20.061875 -16.35125 20.12375 -17.5625 20.1875 C-28.05359973 20.15435277 -38.29109352 17.97114726 -47 12 C-47 11.01 -47 10.02 -47 9 C-40.38791931 5.31411672 -34.48138519 3.06581283 -27 2 C-25.83082031 1.81566406 -24.66164063 1.63132812 -23.45703125 1.44140625 C-15.55326182 0.27316306 -7.98573993 -0.19717876 0 0 Z " fill="#079595" transform="translate(112,102)"/>
</svg>
